<svg width="45" height="37" viewBox="0 0 45 37" fill="none" xmlns="http://www.w3.org/2000/svg">
<path d="M3.45977 36.1666C1.78144 36.1666 0.416687 34.824 0.416687 33.1744C0.416687 32.0017 1.11231 30.9263 2.27831 30.2991C4.95481 28.8747 8.0509 24.2593 8.86577 20.8342C3.60994 19.6461 0.474104 15.5474 0.474104 10.7554C0.474104 5.96548 4.5794 0.833313 10.6921 0.833313C18.4234 0.833313 21.9457 7.19773 21.9457 13.1139C21.9457 25.7941 7.98906 36.1666 3.45977 36.1666ZM26.0974 36.1666C24.4191 36.1666 23.0543 34.824 23.0543 33.1744C23.0543 32.0017 23.7499 30.9263 24.9159 30.2991C27.5924 28.8747 30.6885 24.2593 31.5034 20.8342C26.2476 19.6461 23.1117 15.5474 23.1117 10.7554C23.1117 5.96548 27.217 0.833313 33.3297 0.833313C41.0611 0.833313 44.5834 7.19773 44.5834 13.1139C44.5834 25.7941 30.6267 36.1666 26.0974 36.1666ZM12.3836 17.5548C12.631 24.1798 8.00231 30.2616 4.32544 32.9381C8.54556 31.2111 18.6332 22.2122 18.6332 13.1139C18.6332 8.98648 16.553 4.1679 10.6921 4.1679C6.56027 4.1679 3.7866 7.57315 3.7866 10.7554C3.7866 13.9641 5.69019 17.7469 12.3836 17.5548ZM35.0213 17.5548C35.2686 24.1798 30.6399 30.2616 26.9631 32.9381C31.1832 31.2111 41.2709 22.2122 41.2709 13.1139C41.2709 8.98648 39.1906 4.1679 33.3297 4.1679C29.1979 4.1679 26.4242 7.57315 26.4242 10.7554C26.4242 13.9641 28.3278 17.7469 35.0213 17.5548Z" fill="white"/>
</svg>
