<svg width="30" height="30" viewBox="0 0 30 30" fill="none" xmlns="http://www.w3.org/2000/svg">
<rect x="8.99463" y="5.9939" width="12.003" height="18.0045" fill="white"/>
<path d="M14.9993 0C23.2783 0 30 6.72168 30 14.9993C30 23.2783 23.2783 30 14.9993 30C6.72168 30 0 23.2783 0 14.9993C0 6.72168 6.72168 0 14.9993 0ZM14.9993 12.003C14.3781 12.003 13.874 12.5071 13.874 13.1283V21.3803C13.874 22.0015 14.3781 22.5056 14.9993 22.5056C15.6204 22.5056 16.1245 22.0015 16.1245 21.3803V13.1283C16.1245 12.5071 15.6204 12.003 14.9993 12.003ZM14.9962 7.50188C14.168 7.50188 13.4959 8.17404 13.4959 9.00225C13.4959 9.83046 14.168 10.5026 14.9962 10.5026C15.8245 10.5026 16.4966 9.83046 16.4966 9.00225C16.4966 8.17404 15.8245 7.50188 14.9962 7.50188Z" fill="#0084F7"/>
</svg>
