<svg width="30" height="30" viewBox="0 0 30 30" fill="none" xmlns="http://www.w3.org/2000/svg">
<rect width="30" height="30" rx="15" fill="#0084F7"/>
<path d="M16.6336 13C16.6336 13 17.6229 8 14.4659 8H9V23H22V14.875C22 12.7381 18.5895 12.5344 16.6336 13ZM19.4 19.875H11.6V19.25H19.4V19.875ZM19.4 18H11.6V17.375H19.4V18ZM19.4 16.125H11.6V15.5H19.4V16.125ZM17.1692 8.04688C18.6005 8.78063 21.0289 11.0988 22 12.3475C21.1641 11.785 19.3714 11.3119 18.0408 11.6106C18.1852 10.6931 17.9206 8.77688 17.1692 8.04688Z" fill="white"/>
</svg>
