<svg width="21" height="19" viewBox="0 0 21 19" fill="none" xmlns="http://www.w3.org/2000/svg">
<path d="M7.72222 0.909883C7.72222 0.909883 2.72222 6.59466 0.722222 8.86857C0.611111 8.9949 0.5 9.24755 0.5 9.50021C0.5 9.75287 0.611111 10.0055 0.722222 10.1319C2.72222 12.4058 7.72222 18.0905 7.72222 18.0905C7.83333 18.2169 8.05556 18.3432 8.27778 18.3432C8.5 18.3432 8.72222 18.2169 8.83333 18.0905C9.16667 17.7116 9.16667 17.0799 8.83333 16.7009L3.27778 10.3845H19.6111C20.1667 10.5108 20.5 10.0055 20.5 9.50021C20.5 8.9949 20.1667 8.48958 19.6111 8.48958H3.38889L8.94444 2.17317C9.27778 1.79418 9.27778 1.16254 8.94444 0.783555C8.72222 0.783555 8.5 0.657227 8.27778 0.657227C8.05556 0.657227 7.83333 0.783555 7.72222 0.909883Z" fill="#0084F7"/>
</svg>
