<svg width="15" height="15" viewBox="0 0 15 15" fill="none" xmlns="http://www.w3.org/2000/svg">
<path d="M1.39779 3.5359C1.21779 3.71426 1.10768 3.96008 1.10674 4.23115L1.10674 4.23212L1.35674 4.23201L1.10674 4.2322L1.10674 4.23241L1.10674 4.23328L1.10674 4.23671L1.10675 4.25031L1.10677 4.30364L1.10686 4.50827L1.10719 5.25724L1.10823 7.69694C1.10902 9.58282 1.1099 11.776 1.11025 13.0056C1.10944 13.2806 1.22152 13.5293 1.40084 13.7086C1.58027 13.888 1.82913 14.0001 2.10436 13.9992L2.1035 13.7492L2.10336 13.9992C3.33257 13.9999 5.52538 14.0008 7.41086 14.0015L9.84976 14.0024L10.5985 14.0026L10.8031 14.0027L10.8564 14.0027L10.87 14.0027L10.8734 14.0027L10.8743 14.0027L10.8745 14.0027L10.8746 13.7527L10.8746 14.0027L10.8746 14.0027C11.1479 14.0027 11.3949 13.8903 11.5731 13.7121L11.574 13.7112C11.7514 13.532 11.863 13.2838 11.863 13.0087C11.863 12.4611 11.4215 12.0157 10.8751 12.0148L10.8746 12.0148L4.49999 12.0148L14.375 2.13975C14.763 1.75183 14.763 1.12234 14.375 0.734419C13.9871 0.346498 13.3576 0.346498 12.9697 0.734419L3.0946 10.6095L3.09396 4.23131C3.09395 4.2313 3.09396 4.2313 3.09396 4.23129C3.09394 3.68548 2.64718 3.24647 2.1007 3.24647L2.1007 3.49562L2.1007 3.24647C1.82676 3.24647 1.57733 3.3566 1.39779 3.5359ZM1.39779 3.5359C1.39795 3.53574 1.3981 3.53559 1.39826 3.53544L1.57411 3.71314L1.39733 3.53636C1.39748 3.53621 1.39764 3.53605 1.39779 3.5359Z" fill="#FF0000" stroke="#FF0000" stroke-width="0.5"/>
</svg>
