<svg width="36" height="15" viewBox="0 0 36 15" fill="none" xmlns="http://www.w3.org/2000/svg">
<path d="M35.6691 10.2108V10.2118C35.6681 10.4829 35.558 10.7287 35.378 10.907M35.6691 10.2108L35.4156 1.43699M35.6691 10.2108L35.4191 10.2109M35.6691 10.2108L35.4191 10.2109M35.378 10.907C35.3779 10.9072 35.3777 10.9073 35.3776 10.9075L35.2017 10.7298L35.3785 10.9066C35.3783 10.9067 35.3782 10.9069 35.378 10.907ZM35.378 10.907C35.1985 11.0863 34.9491 11.1965 34.6751 11.1965C34.1286 11.1965 33.6819 10.7574 33.6819 10.2116L33.6812 3.83341L23.8061 13.7085C23.4182 14.0964 22.7887 14.0964 22.4008 13.7085C22.0129 13.3206 22.0129 12.6911 22.4008 12.3032L32.2758 2.42814H25.9012H25.9008C25.3543 2.4272 24.9129 1.98185 24.9129 1.43418C24.9129 1.15911 25.0245 0.910945 25.2018 0.731742L25.2027 0.730811C25.381 0.552592 25.628 0.440224 25.9012 0.440224H25.9013L25.9012 0.690224L25.9014 0.440224L25.9016 0.440224L25.9024 0.440224L25.9059 0.440225L25.9195 0.44023L25.9728 0.440248L26.1773 0.440317L26.9261 0.440574L29.365 0.44145C31.2505 0.442151 33.4433 0.443028 34.6725 0.443729L34.6723 0.693729L34.6715 0.44373C34.9467 0.442791 35.1956 0.554893 35.375 0.734319C35.5544 0.91373 35.6665 1.16257 35.6656 1.43777M35.6656 1.43777C35.6656 1.43779 35.6656 1.43782 35.6656 1.43784L35.4156 1.43699M35.6656 1.43777C35.6656 1.43748 35.6656 1.4372 35.6656 1.43691L35.4156 1.43699M35.6656 1.43777C35.6659 2.66744 35.6668 4.86033 35.6676 6.746L35.6686 9.18569L35.669 9.93466L35.6691 10.1393L35.6691 10.1926L35.6691 10.2062L35.6691 10.2097V10.2105V10.2107L35.4191 10.2109M35.4156 1.43699C35.4163 3.89604 35.4191 10.2109 35.4191 10.2109M14.0026 10.2108V10.2118C14.0017 10.4829 13.8915 10.7287 13.7115 10.907C13.7114 10.9072 13.7112 10.9073 13.7111 10.9075L13.5352 10.7298C13.4013 10.8637 13.2148 10.9465 13.0086 10.9465C12.5977 10.9465 12.2654 10.6169 12.2654 10.2116L14.0026 10.2108ZM14.0026 10.2108L13.7526 10.2109M14.0026 10.2108L13.7526 10.2109M13.9991 1.4372C13.9998 1.16223 13.8878 0.913605 13.7085 0.734319C13.5291 0.554893 13.2802 0.442791 13.005 0.44373L13.0058 0.693729L13.006 0.443729C11.7768 0.443028 9.58396 0.442151 7.69847 0.44145L5.25957 0.440574L4.51084 0.440317L4.30628 0.440248L4.25297 0.44023L4.23937 0.440225L4.23593 0.440224L4.23507 0.440224L4.23485 0.440224L4.2347 0.690224L4.23478 0.440224H4.2347C3.96148 0.440224 3.71446 0.552593 3.53624 0.730813L3.53532 0.731741C3.35798 0.910945 3.24635 1.15911 3.24635 1.43418C3.24635 1.98184 3.68784 2.4272 4.23427 2.42814H4.2347H10.6093L0.734301 12.3032C0.346379 12.6911 0.346379 13.3206 0.734301 13.7085C1.12222 14.0964 1.75171 14.0964 2.13963 13.7085L12.0147 3.83341L12.0154 10.2116L13.7491 1.43699M13.9991 1.4372C13.9991 1.43741 13.9991 1.43762 13.9991 1.43784L13.7491 1.43699M13.9991 1.4372C13.9991 1.4371 13.9991 1.43701 13.9991 1.43691L13.7491 1.43699M13.9991 1.4372C13.9994 2.66676 14.0003 4.86003 14.0011 6.746L14.0021 9.18569L14.0025 9.93466L14.0026 10.1393L14.0026 10.1926L14.0026 10.2062L14.0026 10.2097L14.0026 10.2105V10.2107L13.7526 10.2109M13.7491 1.43699C13.7498 3.89604 13.7526 10.2109 13.7526 10.2109" fill="#FF0000" stroke="#FF0000" stroke-width="0.5"/>
</svg>
