<svg width="30" height="30" viewBox="0 0 30 30" fill="none" xmlns="http://www.w3.org/2000/svg">
<g clip-path="url(#clip0_805_221)">
<rect width="30" height="30" rx="15" fill="white"/>
<path d="M15 0C6.71625 0 0 6.71625 0 15C0 23.2838 6.71625 30 15 30C23.2838 30 30 23.2838 30 15C30 6.71625 23.2838 0 15 0ZM15 27.5C11.0963 27.5 7.6075 25.6987 5.31375 22.8875C5.6375 22.1525 6.2925 21.6437 7.6475 21.33C10.4525 20.6825 13.2212 20.1038 11.8888 17.6488C7.945 10.3738 10.765 6.25 15 6.25C19.1525 6.25 22.0425 10.2213 18.1112 17.6488C16.8175 20.0888 19.4862 20.6687 22.3525 21.33C23.705 21.6425 24.365 22.1488 24.6912 22.8813C22.3962 25.6975 18.9062 27.5 15 27.5Z" fill="#0084F7"/>
</g>
<defs>
<clipPath id="clip0_805_221">
<rect width="30" height="30" rx="15" fill="white"/>
</clipPath>
</defs>
</svg>
