<svg width="30" height="30" viewBox="0 0 30 30" fill="none" xmlns="http://www.w3.org/2000/svg">
<path d="M15 0C6.71625 0 0 6.71625 0 15C0 23.2838 6.71625 30 15 30C23.2837 30 30 23.2838 30 15C30 6.71625 23.2837 0 15 0Z" fill="#0084F7"/>
<path d="M23.958 22.6153L19.1328 17.7166C20.0403 16.4495 20.5769 14.8911 20.5769 13.2079C20.5769 8.97237 17.1825 5.52632 13.0098 5.52632C8.83778 5.52632 5.44342 8.97237 5.44342 13.2079C5.44342 17.4442 8.83778 20.8895 13.0098 20.8895C14.5915 20.8895 16.0604 20.3945 17.2766 19.5489L22.1275 24.4737L23.958 22.6153ZM7.66278 13.2079C7.66278 10.2142 10.0618 7.77868 13.0106 7.77868C15.9593 7.77868 18.3583 10.2142 18.3583 13.2079C18.3583 16.2016 15.9593 18.6371 13.0106 18.6371C10.061 18.6371 7.66278 16.2016 7.66278 13.2079Z" fill="white"/>
</svg>
