<svg width="22" height="22" viewBox="0 0 22 22" fill="none" xmlns="http://www.w3.org/2000/svg">
<path d="M10.2816 1.16898C10.3842 0.952913 10.6921 0.736847 11 0.736847C11.3079 0.736847 11.6158 0.952913 11.7184 1.16898C12.7447 3.32964 14.3868 7.00278 14.3868 7.00278C14.3868 7.00278 18.2868 7.54294 20.5447 7.86704C21.0579 7.97507 21.2632 8.40721 21.2632 8.73131C21.2632 8.94737 21.1605 9.16344 21.0579 9.27147C19.4158 10.892 16.5421 13.8089 16.5421 13.8089C16.5421 13.8089 17.2605 17.9141 17.6711 20.2909C17.7737 20.831 17.3632 21.2632 16.9526 21.2632C16.85 21.2632 16.7474 21.2632 16.5421 21.1551C14.4895 20.0748 11 18.0222 11 18.0222C11 18.0222 7.51052 19.9668 5.45789 21.1551C5.35526 21.2632 5.25263 21.2632 5.15 21.2632C4.63684 21.2632 4.32894 20.831 4.43158 20.2909C4.8421 17.9141 5.56052 13.8089 5.56052 13.8089C5.56052 13.8089 2.58421 11 0.942102 9.37951C0.839471 9.16344 0.736839 8.94737 0.736839 8.73131C0.736839 8.29917 0.942102 7.97507 1.45526 7.97507C3.71316 7.65097 7.61315 7.11081 7.61315 7.11081C7.61315 7.11081 9.25526 3.32964 10.2816 1.16898ZM11 3.43768L8.53684 8.51524L3.2 9.37951L7.1 13.2687L6.17631 18.9945L11 16.2936L15.8237 18.9945L14.7974 13.3767L18.8 9.37951L13.3605 8.51524L11 3.43768Z" fill="white"/>
</svg>
