<svg width="53" height="49" viewBox="0 0 53 49" fill="none" xmlns="http://www.w3.org/2000/svg">
<path d="M38.5685 16.4705L41.6911 19.5931L15.0785 46.2057C11.6291 49.6551 6.03538 49.6551 2.58596 46.2035C-0.863453 42.7541 -0.863453 37.1626 2.58596 33.7132L29.1986 7.10054L32.3212 10.2231L20.2526 22.2917H32.7474L38.5685 16.4705ZM44.8137 16.4705C46.2138 17.8706 48.5833 16.8547 48.5833 14.9092C48.5833 14.3439 48.3669 13.7785 47.9363 13.3479L35.4438 0.853166C35.0131 0.424749 34.4478 0.208332 33.8825 0.208332C31.9193 0.208332 30.9388 2.59554 32.3212 3.97796L44.8137 16.4705ZM53 32.2667C53 35.2767 50.5576 37.75 47.5454 37.75C40.9403 37.75 38.5796 28.4308 49.5594 20.0833C49.4313 25.306 53 27.3752 53 32.2667ZM47.764 24.6126C47 25.03 45.8737 26.154 45.7015 27.5563C45.4475 29.6543 47.6161 30.2726 47.806 27.4592C47.8943 26.2733 47.806 25.7057 47.764 24.6126Z" fill="white"/>
</svg>
