<svg width="37" height="15" viewBox="0 0 37 15" fill="none" xmlns="http://www.w3.org/2000/svg">
<path d="M0.75 4.53767H0.750001C0.75094 4.2666 0.861051 4.02078 1.04105 3.84242C1.22059 3.66311 1.47001 3.55299 1.74396 3.55299C2.29044 3.55299 2.7372 3.992 2.73721 4.53781C2.73721 4.53781 2.73721 4.53782 2.73721 4.53783L2.73785 10.916L12.613 1.04094C13.0009 0.653019 13.6304 0.65302 14.0183 1.04094C14.4062 1.42886 14.4062 2.05835 14.0183 2.44627L4.14324 12.3213L10.5179 12.3213H10.5183C11.0647 12.3223 11.5062 12.7676 11.5062 13.3153C11.5062 13.5903 11.3946 13.8385 11.2173 14.0177L11.2163 14.0186C11.0381 14.1969 10.7911 14.3092 10.5179 14.3092H10.5178L10.5179 14.0592L10.5177 14.3092H10.5175H10.5167L10.5132 14.3092L10.4996 14.3092L10.4463 14.3092L10.2417 14.3091L9.49302 14.3089L7.05412 14.308C5.16863 14.3073 2.97583 14.3064 1.74662 14.3057L1.74676 14.0557L1.74761 14.3057C1.47239 14.3067 1.22352 14.1946 1.04409 14.0151C0.864774 13.8358 0.752701 13.5871 0.753505 13.3121M0.75 4.53767L1.0035 13.3125M0.75 4.53767L0.75 4.53864M0.75 4.53767L0.75 4.53864M0.753505 13.3121C0.753505 13.3119 0.753506 13.3118 0.753506 13.3116L1.0035 13.3125M0.753505 13.3121C0.753505 13.3123 0.753505 13.3124 0.753505 13.3125L1.0035 13.3125M0.753505 13.3121C0.753154 12.0825 0.752278 9.88934 0.75149 8.00346L0.750449 5.56376L0.750122 4.81479L0.750032 4.61016L0.750008 4.55683L0.750002 4.54323L0.750001 4.53979L0.75 4.53893L0.75 4.53872L1 4.53853M1.0035 13.3125C1.0028 10.8534 1 4.53853 1 4.53853M1 4.53853L0.75 4.53864M1 4.53853L0.75 4.53864M22.4165 4.53865V4.53767C22.4174 4.2666 22.5276 4.02078 22.7076 3.84242C22.8871 3.66311 23.1365 3.55299 23.4105 3.55299C23.9569 3.55299 24.4037 3.99201 24.4037 4.53781L24.4044 10.916L34.2795 1.04094C34.6674 0.653021 35.2969 0.653022 35.6848 1.04094C36.0727 1.42887 36.0727 2.05835 35.6848 2.44627L25.8097 12.3213L32.1844 12.3213H32.1848C32.7312 12.3223 33.1727 12.7676 33.1727 13.3153C33.1727 13.5903 33.0611 13.8385 32.8838 14.0177L32.8829 14.0186C32.7046 14.1969 32.4576 14.3092 32.1844 14.3092H32.1843L32.1844 14.0592L32.1842 14.3092H32.184H32.1832L32.1797 14.3092L32.1661 14.3092L32.1128 14.3092L31.9083 14.3091L31.1595 14.3089L28.7206 14.308C26.8351 14.3073 24.6423 14.3064 23.4131 14.3057L23.4133 14.0557L23.4141 14.3057C23.1389 14.3067 22.89 14.1946 22.7106 14.0151C22.5313 13.8358 22.4192 13.5872 22.42 13.3123M22.4165 4.53865L22.67 13.3125M22.4165 4.53865L22.6665 4.53853M22.4165 4.53865L22.6665 4.53853M22.42 13.3123C22.42 13.312 22.42 13.3118 22.42 13.3116L22.67 13.3125M22.42 13.3123C22.42 13.3124 22.42 13.3124 22.42 13.3125L22.67 13.3125M22.42 13.3123C22.4197 12.0827 22.4188 9.88942 22.418 8.00346L22.417 5.56377L22.4166 4.81479L22.4165 4.61016L22.4165 4.55684L22.4165 4.54323L22.4165 4.5398V4.53893V4.53872L22.6665 4.53853M22.67 13.3125C22.6693 10.8534 22.6665 4.53853 22.6665 4.53853M3.89324 12.5713H3.53969L3.78969 12.3213L3.89324 12.5713Z" fill="#FF0000" stroke="#FF0000" stroke-width="0.5"/>
</svg>
