<svg width="203" height="45" viewBox="0 0 203 45" fill="none" xmlns="http://www.w3.org/2000/svg">
<g clip-path="url(#clip0_791_1990)">
<path d="M115.575 11.188C113.386 8.95591 110.332 7.55052 106.98 7.55052H98.412C97.6552 7.55052 97.0605 8.15677 97.0605 8.92835V42.9333C97.0605 43.7048 97.6552 44.3111 98.412 44.3111H106.98C113.683 44.3111 119.143 38.7722 119.143 31.9106V19.951C119.143 16.534 117.765 13.4201 115.575 11.188ZM111.656 29.4305C111.656 32.572 109.71 35.245 106.98 36.237C106.737 36.3197 106.467 36.4023 106.196 36.485C105.358 36.6779 104.548 36.0165 104.548 35.1347V16.7269C104.548 15.8451 105.358 15.1837 106.196 15.3766C106.467 15.4317 106.71 15.5144 106.98 15.6246C107.953 15.9829 108.845 16.5615 109.575 17.3056C110.872 18.6283 111.656 20.4195 111.656 22.4311V29.4305Z" fill="url(#paint0_linear_791_1990)"/>
<path d="M89.141 13.8059V8.92835C89.141 8.15677 88.5463 7.55052 87.7895 7.55052H82.0324C77.897 7.55052 74.5454 10.9675 74.5454 15.1837V22.128V29.7612V36.7054C74.5454 40.9216 77.897 44.3386 82.0324 44.3386H87.7895C88.5463 44.3386 89.141 43.7324 89.141 42.9608V38.0833C89.141 37.3117 88.5463 36.7054 87.7895 36.7054H85.438C83.546 36.7054 82.0324 35.1623 82.0324 33.2333C82.0324 31.3043 83.546 29.7612 85.438 29.7612H87.7895C88.5463 29.7612 89.141 29.1549 89.141 28.3833V23.5058C89.141 22.7342 88.5463 22.128 87.7895 22.128H85.438C83.546 22.128 82.0324 20.5848 82.0324 18.6558C82.0324 16.7269 83.546 15.1837 85.438 15.1837H87.7895C88.5463 15.1837 89.141 14.5775 89.141 13.8059Z" fill="url(#paint1_linear_791_1990)"/>
<path d="M59.166 7.55052H52.0574H44.5704H37.4618C33.3264 7.55052 29.9749 10.9675 29.9749 15.1837V42.9333C29.9749 43.7048 30.5695 44.3111 31.3263 44.3111H36.1104C36.8672 44.3111 37.4618 43.7048 37.4618 42.9333V18.7936C37.4618 16.782 39.0565 15.1562 41.0296 15.1562C43.0027 15.1562 44.5974 16.782 44.5974 18.7936V42.9057C44.5974 43.6773 45.1921 44.2835 45.9489 44.2835H50.733C51.4898 44.2835 52.0844 43.6773 52.0844 42.9057V18.7936C52.0844 16.782 53.6791 15.1562 55.6522 15.1562C57.6253 15.1562 59.22 16.782 59.22 18.7936V42.9057C59.22 43.6773 59.8147 44.2835 60.5715 44.2835H65.3556C66.1124 44.2835 66.707 43.6773 66.707 42.9057V15.1837C66.6259 10.9675 63.3014 7.55052 59.166 7.55052Z" fill="url(#paint2_linear_791_1990)"/>
<path d="M165.038 7.55052H157.929C153.794 7.55052 150.442 10.9675 150.442 15.1837V22.128V29.7612V42.9608C150.442 43.7324 151.037 44.3386 151.794 44.3386H156.578C157.335 44.3386 157.929 43.7324 157.929 42.9608V31.139C157.929 30.3674 158.524 29.7612 159.281 29.7612H163.687C164.443 29.7612 165.038 30.3674 165.038 31.139V42.9608C165.038 43.7324 165.633 44.3386 166.389 44.3386H171.173C171.93 44.3386 172.525 43.7324 172.525 42.9608V15.1837C172.525 10.9675 169.173 7.55052 165.038 7.55052ZM163.687 22.128H159.281C158.524 22.128 157.929 21.5217 157.929 20.7502V18.8212C157.929 16.8096 159.524 15.1837 161.497 15.1837C163.47 15.1837 165.065 16.8096 165.065 18.8212V20.7502C165.038 21.4942 164.443 22.128 163.687 22.128Z" fill="url(#paint3_linear_791_1990)"/>
<path d="M187.931 7.55052H181.796C181.039 7.55052 180.444 8.15677 180.444 8.92835V15.1837V22.128V29.7612V36.7054V42.9608C180.444 43.7324 181.039 44.3386 181.796 44.3386H187.931H195.04C199.175 44.3386 202.527 40.9216 202.527 36.7054V15.1837C202.527 10.9675 199.175 7.55052 195.04 7.55052H187.931ZM191.634 36.6779H189.283C188.526 36.6779 187.931 36.0716 187.931 35.3001V31.1115C187.931 30.3399 188.526 29.7336 189.283 29.7336H191.634C193.526 29.7336 195.04 31.2768 195.04 33.2058C195.04 35.1347 193.499 36.6779 191.634 36.6779ZM191.634 22.128H189.283C188.526 22.128 187.931 21.5217 187.931 20.7502V16.5615C187.931 15.79 188.526 15.1837 189.283 15.1837H191.634C193.526 15.1837 195.04 16.7269 195.04 18.6558C195.04 20.5573 193.499 22.128 191.634 22.128Z" fill="url(#paint4_linear_791_1990)"/>
<path d="M18.5147 11.188C16.3254 8.95591 13.2712 7.55052 9.91958 7.55052H1.16224C0.513548 7.55052 0 8.0741 0 8.73546V43.1262C0 43.7875 0.513548 44.3111 1.16224 44.3111H9.91958C16.6227 44.3111 22.0826 38.7722 22.0826 31.9106V19.951C22.0555 16.534 20.7041 13.4201 18.5147 11.188ZM14.5956 29.4305C14.5956 32.572 12.6495 35.245 9.91958 36.237C9.59523 36.3748 9.24386 36.4574 8.86546 36.5401C8.13568 36.6779 7.48699 36.1268 7.48699 35.3827V16.4789C7.48699 15.7348 8.16271 15.1837 8.86546 15.3215C9.21683 15.4042 9.56821 15.4868 9.91958 15.6246C10.8926 15.9829 11.7846 16.5615 12.5143 17.3056C13.7847 18.6283 14.5956 20.4195 14.5956 22.4311V29.4305Z" fill="url(#paint5_linear_791_1990)"/>
<path d="M143.956 0.385792C143.712 0.137783 143.388 -7.26432e-07 143.037 -7.26432e-07H142.334C142.009 -7.26432e-07 141.712 0.0551126 141.442 0.192896C141.036 0.358236 140.685 0.661359 140.442 1.04715C140.199 1.43294 140.036 1.87385 140.036 2.36987V37.0086C140.036 37.7526 139.901 38.4415 139.631 39.0753C139.253 40.0398 138.577 40.8665 137.766 41.4452C137.361 41.7483 136.901 41.9688 136.415 42.1341C135.928 42.2994 135.414 42.3821 134.874 42.3821H134.847C134.117 42.3821 133.441 42.2443 132.82 41.9688C131.901 41.5554 131.09 40.8941 130.522 40.0398C129.955 39.1856 129.63 38.1935 129.63 37.0912V2.34231C129.63 2.01163 129.576 1.70851 129.441 1.43294C129.279 1.0196 128.982 0.661359 128.603 0.385792C128.252 0.137783 127.792 -7.26432e-07 127.333 -0.0275574C127.333 -0.0275574 127.333 -0.0275574 127.306 -0.0275574H126.603C126.252 -0.0275574 125.927 0.110226 125.684 0.358236C125.441 0.606245 125.306 0.936925 125.306 1.29516C125.306 1.6534 125.441 1.98408 125.684 2.23209C125.927 2.4801 126.252 2.61788 126.603 2.61788H127.036V37.0637C127.036 38.166 127.252 39.2131 127.657 40.15C128.252 41.583 129.225 42.7955 130.468 43.6497C131.684 44.4764 133.144 44.9724 134.712 45H134.793C134.82 45 134.82 45 134.847 45C135.928 45 136.955 44.752 137.874 44.3386C139.253 43.7048 140.442 42.6852 141.253 41.4176C142.091 40.15 142.55 38.6069 142.55 36.981V2.61788H142.983C143.334 2.61788 143.658 2.4801 143.902 2.23209C144.145 1.98408 144.28 1.6534 144.28 1.29516C144.334 0.964482 144.172 0.633802 143.956 0.385792Z" fill="url(#paint6_linear_791_1990)"/>
<path d="M136.063 10.1684C135.901 9.81017 135.658 9.50705 135.36 9.2866C135.036 9.06614 134.658 8.95592 134.252 8.95592C133.982 8.95592 133.712 9.01103 133.495 9.12126C133.144 9.2866 132.847 9.53461 132.631 9.83773C132.414 10.1684 132.306 10.5542 132.306 10.9676C132.306 11.2431 132.36 11.5187 132.468 11.7391C132.63 12.0974 132.874 12.4005 133.171 12.621C133.495 12.8414 133.874 12.9516 134.279 12.9516C134.55 12.9516 134.82 12.8965 135.036 12.7863C135.387 12.621 135.685 12.3729 135.901 12.0698C136.117 11.7391 136.225 11.3533 136.225 10.94C136.225 10.692 136.171 10.4164 136.063 10.1684Z" fill="url(#paint7_linear_791_1990)"/>
<path d="M137.306 4.93264C137.225 4.71219 137.063 4.54685 136.874 4.40907C136.685 4.27128 136.468 4.21617 136.225 4.21617C136.063 4.21617 135.901 4.24373 135.766 4.29884C135.55 4.38151 135.387 4.54685 135.252 4.73975C135.117 4.93264 135.063 5.1531 135.063 5.40111C135.063 5.56645 135.09 5.73179 135.144 5.86957C135.225 6.09002 135.387 6.28292 135.577 6.39315C135.766 6.53093 135.982 6.58604 136.225 6.58604C136.387 6.58604 136.55 6.55849 136.685 6.50337C136.901 6.4207 137.063 6.25536 137.198 6.06247C137.333 5.86957 137.387 5.64912 137.387 5.40111C137.387 5.23577 137.36 5.07043 137.306 4.93264Z" fill="url(#paint8_linear_791_1990)"/>
<path d="M134.469 1.24006C134.414 1.12983 134.333 1.0196 134.225 0.936933C134.117 0.854263 133.982 0.826706 133.847 0.826706C133.766 0.826706 133.658 0.854263 133.577 0.881819C133.468 0.936933 133.36 1.0196 133.279 1.12983C133.198 1.24006 133.171 1.37784 133.171 1.51562C133.171 1.59829 133.198 1.70852 133.225 1.79119C133.279 1.90142 133.36 2.01164 133.468 2.09431C133.577 2.17698 133.712 2.20454 133.847 2.20454C133.928 2.20454 134.036 2.17698 134.117 2.14943C134.225 2.09431 134.333 2.01164 134.414 1.90142C134.496 1.79119 134.523 1.65341 134.523 1.51562C134.523 1.43295 134.496 1.32273 134.469 1.24006Z" fill="url(#paint9_linear_791_1990)"/>
<path d="M131.468 17.4434V36.7881C131.468 38.9375 133.009 40.6736 134.874 40.6461C136.739 40.6185 138.198 38.8549 138.198 36.733V17.4434H131.468Z" fill="url(#paint10_linear_791_1990)"/>
<path d="M138.198 17.4434C138.198 18.8212 131.441 18.8212 131.441 17.4434C131.468 16.6167 138.198 16.6167 138.198 17.4434Z" fill="#2CAFFF"/>
</g>
<defs>
<linearGradient id="paint0_linear_791_1990" x1="96.082" y1="8.72791" x2="115.281" y2="41.3445" gradientUnits="userSpaceOnUse">
<stop stop-color="#0088FF"/>
<stop offset="0.3686" stop-color="#0087FC"/>
<stop offset="0.6214" stop-color="#0084F3"/>
<stop offset="0.8389" stop-color="#007FE4"/>
<stop offset="1" stop-color="#0079D3"/>
</linearGradient>
<linearGradient id="paint1_linear_791_1990" x1="74.5669" y1="10.7774" x2="92.7238" y2="41.6236" gradientUnits="userSpaceOnUse">
<stop stop-color="#0088FF"/>
<stop offset="0.3686" stop-color="#0087FC"/>
<stop offset="0.6214" stop-color="#0084F3"/>
<stop offset="0.8389" stop-color="#007FE4"/>
<stop offset="1" stop-color="#0079D3"/>
</linearGradient>
<linearGradient id="paint2_linear_791_1990" x1="36.3247" y1="7.04951" x2="60.1586" y2="47.5403" gradientUnits="userSpaceOnUse">
<stop stop-color="#0088FF"/>
<stop offset="0.3686" stop-color="#0087FC"/>
<stop offset="0.6214" stop-color="#0084F3"/>
<stop offset="0.8389" stop-color="#007FE4"/>
<stop offset="1" stop-color="#0079D3"/>
</linearGradient>
<linearGradient id="paint3_linear_791_1990" x1="151.325" y1="10.2695" x2="171.406" y2="44.3831" gradientUnits="userSpaceOnUse">
<stop stop-color="#0088FF"/>
<stop offset="0.3686" stop-color="#0087FC"/>
<stop offset="0.6214" stop-color="#0084F3"/>
<stop offset="0.8389" stop-color="#007FE4"/>
<stop offset="1" stop-color="#0079D3"/>
</linearGradient>
<linearGradient id="paint4_linear_791_1990" x1="180.193" y1="8.29166" x2="200.273" y2="42.4053" gradientUnits="userSpaceOnUse">
<stop stop-color="#0088FF"/>
<stop offset="0.3686" stop-color="#0087FC"/>
<stop offset="0.6214" stop-color="#0084F3"/>
<stop offset="0.8389" stop-color="#007FE4"/>
<stop offset="1" stop-color="#0079D3"/>
</linearGradient>
<linearGradient id="paint5_linear_791_1990" x1="-1.06064" y1="8.68373" x2="18.1747" y2="41.3621" gradientUnits="userSpaceOnUse">
<stop stop-color="#0088FF"/>
<stop offset="0.3686" stop-color="#0087FC"/>
<stop offset="0.6214" stop-color="#0084F3"/>
<stop offset="0.8389" stop-color="#007FE4"/>
<stop offset="1" stop-color="#0079D3"/>
</linearGradient>
<linearGradient id="paint6_linear_791_1990" x1="124.816" y1="0.868695" x2="147.216" y2="38.9245" gradientUnits="userSpaceOnUse">
<stop stop-color="#0079D3"/>
<stop offset="6.92613e-08" stop-color="#0079D3"/>
<stop offset="0.2773" stop-color="#0078D1"/>
<stop offset="0.4305" stop-color="#0274C9"/>
<stop offset="0.5534" stop-color="#056DBB"/>
<stop offset="0.6602" stop-color="#0964A7"/>
<stop offset="0.7566" stop-color="#0E578E"/>
<stop offset="0.8455" stop-color="#14486F"/>
<stop offset="0.9269" stop-color="#1B364B"/>
<stop offset="1" stop-color="#232323"/>
</linearGradient>
<linearGradient id="paint7_linear_791_1990" x1="133.263" y1="9.21602" x2="135.289" y2="12.6583" gradientUnits="userSpaceOnUse">
<stop offset="4.04912e-07" stop-color="#2CAFFF"/>
<stop offset="0.5011" stop-color="#0088FF"/>
<stop offset="1" stop-color="#0079D3"/>
</linearGradient>
<linearGradient id="paint8_linear_791_1990" x1="135.625" y1="4.36131" x2="136.84" y2="6.42551" gradientUnits="userSpaceOnUse">
<stop offset="4.04912e-07" stop-color="#2CAFFF"/>
<stop offset="0.5011" stop-color="#0088FF"/>
<stop offset="1" stop-color="#0079D3"/>
</linearGradient>
<linearGradient id="paint9_linear_791_1990" x1="133.525" y1="0.930705" x2="134.204" y2="2.08524" gradientUnits="userSpaceOnUse">
<stop offset="4.04912e-07" stop-color="#2CAFFF"/>
<stop offset="0.5011" stop-color="#0088FF"/>
<stop offset="1" stop-color="#0079D3"/>
</linearGradient>
<linearGradient id="paint10_linear_791_1990" x1="129.643" y1="18.5258" x2="140.862" y2="37.5858" gradientUnits="userSpaceOnUse">
<stop stop-color="#0088FF"/>
<stop offset="0.3686" stop-color="#0087FC"/>
<stop offset="0.6214" stop-color="#0084F3"/>
<stop offset="0.8389" stop-color="#007FE4"/>
<stop offset="1" stop-color="#0079D3"/>
</linearGradient>
<clipPath id="clip0_791_1990">
<rect width="202.5" height="45" fill="white"/>
</clipPath>
</defs>
</svg>
