<svg width="15" height="15" viewBox="0 0 15 15" fill="none" xmlns="http://www.w3.org/2000/svg">
<path d="M14.3781 10.907C14.5581 10.7287 14.6682 10.4829 14.6691 10.2118L14.6691 10.2108L14.4191 10.2109L14.6691 10.2107L14.6691 10.2105L14.6691 10.2097L14.6691 10.2062L14.6691 10.1926L14.6691 10.1393L14.669 9.93466L14.6687 9.18569L14.6676 6.74599C14.6669 4.86011 14.666 2.66693 14.6656 1.43734C14.6664 1.16231 14.5544 0.913635 14.375 0.734317C14.1956 0.554891 13.9467 0.442789 13.6715 0.443728L13.6724 0.693727L13.6725 0.443727C12.4433 0.443025 10.2505 0.442149 8.36502 0.441448L5.92612 0.440572L5.17738 0.440314L4.97283 0.440246L4.91951 0.440227L4.90591 0.440223L4.90248 0.440222L4.90162 0.440222L4.9014 0.440221L4.90125 0.690222L4.90133 0.440222L4.90125 0.440221C4.62802 0.440221 4.38101 0.55259 4.20278 0.730808L4.20186 0.731739C4.02453 0.910943 3.9129 1.15911 3.9129 1.43418C3.9129 1.98184 4.35439 2.4272 4.90082 2.42814H4.90125L11.2759 2.42814L1.40085 12.3032C1.01293 12.6911 1.01293 13.3206 1.40085 13.7085C1.78877 14.0964 2.41826 14.0964 2.80618 13.7085L12.6813 3.83341L12.6819 10.2116C12.6819 10.2116 12.6819 10.2116 12.6819 10.2116C12.6819 10.7575 13.1287 11.1965 13.6752 11.1965L13.6752 10.9473L13.6752 11.1965C13.9491 11.1965 14.1985 11.0863 14.3781 10.907ZM14.3781 10.907C14.3779 10.9072 14.3778 10.9073 14.3776 10.9075L14.2018 10.7298L14.3785 10.9066C14.3784 10.9067 14.3782 10.9069 14.3781 10.907Z" fill="#FF0000" stroke="#FF0000" stroke-width="0.5"/>
</svg>
