<svg width="87" height="87" viewBox="0 0 87 87" fill="none" xmlns="http://www.w3.org/2000/svg">
<path d="M43.4999 24.5491C40.845 24.5491 38.6929 22.3971 38.6929 19.7422V4.80698C38.6929 2.15208 40.845 0 43.4999 0C46.1547 0 48.3068 2.15208 48.3068 4.80698V19.7422C48.3071 22.3971 46.1547 24.5491 43.4999 24.5491Z" fill="#0084F7"/>
<path opacity="0.6" d="M43.4999 87C40.845 87 38.6929 84.8479 38.6929 82.193V67.2578C38.6929 64.6029 40.845 62.4509 43.4999 62.4509C46.1547 62.4509 48.3068 64.6029 48.3068 67.2578V82.193C48.3071 84.8479 46.1547 87 43.4999 87Z" fill="#0084F7"/>
<path opacity="0.8" d="M61.9104 42.1763C61.9104 39.5214 64.0625 37.3693 66.7174 37.3693H81.6526C84.3075 37.3693 86.4595 39.5214 86.4595 42.1763C86.4595 44.8312 84.3075 46.9833 81.6526 46.9833H66.7174C64.0625 46.9833 61.9104 44.8309 61.9104 42.1763Z" fill="#0084F7"/>
<path opacity="0.4" d="M0 43.5001C0 40.8452 2.15208 38.6932 4.80698 38.6932H19.7422C22.3971 38.6932 24.5491 40.8452 24.5491 43.5001C24.5491 46.155 22.3971 48.3071 19.7422 48.3071H4.80698C2.15208 48.3071 0 46.1548 0 43.5001Z" fill="#0084F7"/>
<path opacity="0.9" d="M56.9 30.0999C55.0226 28.2225 55.0226 25.1788 56.9 23.3017L67.4607 12.741C69.3381 10.8636 72.3818 10.8636 74.2589 12.741C76.1363 14.6184 76.1363 17.662 74.2589 19.5391L63.6981 30.0999C61.821 31.977 58.7774 31.977 56.9 30.0999Z" fill="#0084F7"/>
<path opacity="0.5" d="M12.7408 74.259C10.8634 72.3816 10.8634 69.338 12.7408 67.4609L23.3016 56.9001C25.1789 55.0227 28.2226 55.0227 30.0997 56.9001C31.9771 58.7775 31.9771 61.8212 30.0997 63.6983L19.539 74.259C17.6618 76.1364 14.6182 76.1364 12.7408 74.259Z" fill="#0084F7"/>
<path opacity="0.7" d="M56.9 56.9001C58.7774 55.0227 61.8211 55.0227 63.6982 56.9001L74.2589 67.4609C76.1363 69.3383 76.1363 72.3819 74.2589 74.259C72.3815 76.1364 69.3379 76.1364 67.4608 74.259L56.9 63.6983C55.0229 61.8212 55.0229 58.7775 56.9 56.9001Z" fill="#0084F7"/>
<path opacity="0.3" d="M12.7411 12.7407C14.6184 10.8633 17.6621 10.8633 19.5392 12.7407L30.0999 23.3015C31.9773 25.1788 31.9773 28.2225 30.0999 30.0996C28.2226 31.977 25.1789 31.977 23.3018 30.0996L12.7411 19.5389C10.8637 17.6618 10.8637 14.6181 12.7411 12.7407Z" fill="#0084F7"/>
</svg>
