<svg width="30" height="30" viewBox="0 0 30 30" fill="none" xmlns="http://www.w3.org/2000/svg">
<rect width="30" height="30" rx="15" fill="#0084F7"/>
<path d="M18 12.9V10.1L24 15L18 19.9V17.1H12V12.9H18ZM16.5 19.9V19.8419C15.6165 20.3214 14.5935 20.6 13.5 20.6C10.1918 20.6 7.5 18.0877 7.5 15C7.5 11.9123 10.1918 9.4 13.5 9.4C14.5935 9.4 15.6165 9.6786 16.5 10.1581V8.5866C15.5805 8.2114 14.5673 8 13.5 8C9.3585 8 6 11.1339 6 15C6 18.8661 9.3585 22 13.5 22C14.5673 22 15.5805 21.7886 16.5 21.4134V19.9Z" fill="white"/>
</svg>
