<svg width="38" height="38" viewBox="0 0 38 38" fill="none" xmlns="http://www.w3.org/2000/svg">
<path d="M26.3229 13.129C26.3229 13.9302 25.6738 14.5809 24.871 14.5809C24.0683 14.5809 23.4207 13.9302 23.4207 13.129C23.4207 12.3278 24.0683 11.6771 24.871 11.6771C25.6738 11.6771 26.3229 12.3278 26.3229 13.129ZM38 19C38 29.4928 29.4928 38 19 38C8.50725 38 0 29.4928 0 19C0 8.50725 8.50725 0 19 0C29.4928 0 38 8.50725 38 19ZM20.1194 22.0812C18.3113 21.3908 16.8498 20.0038 16.0645 18.2448L11.0833 23.2877V26.9167H15.8333V25.3333H17.4167V23.75H18.4807L20.1194 22.0812ZM28.5 15.3061C28.5 12.0998 25.9002 9.5 22.6939 9.5C19.4893 9.5 16.8894 12.0998 16.8894 15.3061C16.8894 18.5123 19.4893 21.1122 22.6939 21.1122C25.9002 21.1106 28.5 18.5107 28.5 15.3061Z" fill="#0084F7"/>
</svg>
