<svg width="23" height="53" viewBox="0 0 23 53" fill="none" xmlns="http://www.w3.org/2000/svg">
<path d="M15.9166 8.83333H20.3333V44.1667C20.3333 49.0449 16.3782 53 11.5 53C6.62177 53 2.66665 49.0449 2.66665 44.1667V8.83333H7.08331V15.4583H13.7083V43.7758C13.7083 45.9245 12.984 47.5123 11.4691 48.5789L11.5 48.5833C13.9358 48.5833 15.9166 46.6025 15.9166 44.1667V8.83333ZM20.3333 0H2.66665C1.44765 0 0.458313 0.989333 0.458313 2.20833C0.458313 3.42733 1.44765 4.41667 2.66665 4.41667H20.3333C21.5545 4.41667 22.5416 3.42733 22.5416 2.20833C22.5416 0.989333 21.5545 0 20.3333 0Z" fill="white"/>
</svg>
